<svg xmlns="http://www.w3.org/2000/svg" viewBox="0 0 640 160">
  <defs>
    <linearGradient id="pin" x1="0" y1="0" x2="0" y2="1">
      <stop offset="0%" stop-color="#74C4FF"/>
      <stop offset="100%" stop-color="#2B70E0"/>
    </linearGradient>
  </defs>

  <!-- ══ T1 ══ -->
  <rect x="2"  y="12" width="112" height="22" rx="4" fill="#ffffff"/>
  <rect x="47" y="34" width="22"  height="118" rx="4" fill="#ffffff"/>

  <!-- ══ Pin accent ══ -->
  <circle cx="129" cy="17" r="7"  fill="url(#pin)"/>
  <rect   x="126"  y="24" width="6" height="64" rx="3" fill="url(#pin)"/>

  <!-- ══ T2 ══ -->
  <rect x="138" y="12" width="112" height="22" rx="4" fill="#ffffff"/>
  <rect x="183" y="34" width="22"  height="118" rx="4" fill="#ffffff"/>

  <!-- ══ Person / M ══ -->
  <!-- Head -->
  <circle cx="366" cy="22" r="20" fill="#ffffff"/>
  <!-- Body -->
  <path d="
    M 314,50
    C 294,65 284,100 294,152
    L 318,152
    C 324,124 340,103 366,92
    C 392,103 408,124 414,152
    L 438,152
    C 448,100 438,65 418,50
    Q 366,38 314,50 Z
  " fill="#ffffff"/>

  <!-- ══ PR ══ -->
  <text x="458" y="148"
        font-family="Arial Black, Arial, sans-serif"
        font-size="88" font-weight="900"
        fill="#2ED8F0">PR</text>
</svg>
